<?xml version="1.0" encoding="UTF-8"?>
<svg width="14px" height="24px" viewBox="0 0 14 24" version="1.1" xmlns="http://www.w3.org/2000/svg" xmlns:xlink="http://www.w3.org/1999/xlink">
    <!-- Generator: Sketch 47.1 (45422) - http://www.bohemiancoding.com/sketch -->
    <title>Shape</title>
    <desc>Created with Sketch.</desc>
    <defs></defs>
    <g id="Page-1" stroke="none" stroke-width="1" fill="none" fill-rule="evenodd">
        <g id="good_times_landing" transform="translate(-1236.000000, -7071.000000)" fill-rule="nonzero" fill="#FFFFFF">
            <g id="Group-5" transform="translate(0.000000, 6984.000000)">
                <g id="Group-8">
                    <path d="M1245.58632,109.590795 C1245.58638,110.247431 1245.06111,110.777778 1244.41589,110.777778 L1240.59001,110.777778 C1239.94373,110.777778 1239.41956,110.245285 1239.41956,109.588746 L1239.41956,101.117627 L1237.3892,101.117627 C1236.74292,101.117627 1236.21875,100.585134 1236.21875,99.9285955 L1236.21875,96.1642834 C1236.21875,95.5077444 1236.74292,94.9752516 1237.3892,94.9752516 L1239.41956,94.9752516 L1239.41956,93.3892037 C1239.41953,89.6316149 1241.73036,87.2222222 1245.35508,87.2222222 C1246.459,87.2222222 1247.71168,87.2926874 1248.36719,87.3820946 C1248.94984,87.4605392 1249.38392,87.9645727 1249.38392,88.5612413 L1249.38392,91.9266732 C1249.38392,92.5832123 1248.85975,93.1157052 1248.2144,93.1157046 L1246.25316,93.1178396 C1245.57168,93.1178395 1245.58632,93.1029202 1245.58632,93.7614827 L1245.58632,94.9763187 L1248.08573,94.9763187 C1248.42298,94.9763187 1248.74471,95.1240714 1248.96064,95.3762937 C1249.18518,95.6332457 1249.28912,95.9752612 1249.24662,96.3180732 L1248.76934,100.080953 C1248.69457,100.674376 1248.19735,101.119734 1247.6083,101.119734 L1245.58632,101.119734 L1245.58632,109.590795 Z M1247.63392,89.0912276 C1247.01092,89.0384226 1246.14069,89 1245.35508,89 C1242.7072,89 1241.16953,90.6032454 1241.16956,93.3891964 L1241.16956,96.7530293 L1237.96875,96.7530293 L1237.96875,99.3398496 L1241.16956,99.3398496 L1241.16956,109 L1243.83632,109 L1243.83632,99.3419557 L1247.0986,99.3419557 L1247.42685,96.7540964 L1243.83632,96.7540964 L1243.83632,93.7614827 C1243.83632,92.1221869 1244.60408,91.3400616 1246.25223,91.3400622 L1247.63392,91.3385582 L1247.63392,89.0912276 Z" id="Shape"></path>
                </g>
            </g>
        </g>
    </g>
</svg>