<?xml version="1.0" encoding="UTF-8" standalone="no"?>
<!DOCTYPE svg PUBLIC "-//W3C//DTD SVG 1.1//EN" "http://www.w3.org/Graphics/SVG/1.1/DTD/svg11.dtd">
<svg version="1.1" xmlns="http://www.w3.org/2000/svg" xmlns:xlink="http://www.w3.org/1999/xlink" preserveAspectRatio="xMidYMid meet" viewBox="0 0 2560 1440" width="2560" height="1440"><defs><path d="M964.47 1059.86C966.2 1054.07 967.16 1050.86 967.36 1050.22C973.26 1030.71 991.25 1017.55 1012.26 1017.55C1033.39 1017.55 1049.53 1029.83 1055.36 1050.34C1055.55 1050.97 1056.45 1054.14 1058.07 1059.86L964.47 1059.86ZM1096.06 1072.02C1095.15 1022.48 1060.66 987.76 1012.26 987.76C963.02 987.76 925.94 1024.01 925.94 1072.02C925.94 1120.03 962.9 1156.28 1011.9 1156.28C1037.43 1156.28 1070.59 1148.88 1088.77 1115.09C1085.24 1114.39 1056.97 1108.74 1053.44 1108.04C1044.23 1120.85 1030.62 1127.14 1011.9 1127.14C989.09 1127.14 971.57 1112.04 966.15 1087.77C966.02 1087.16 965.36 1084.12 964.17 1078.66L1096.06 1078.66C1096.06 1075.12 1096.06 1072.9 1096.06 1072.02Z" id="dFcovxbUx"></path><path d="M1231.74 1022.43C1254.2 1022.43 1269.85 1039.52 1269.85 1064.09C1269.85 1069.88 1269.85 1098.87 1269.85 1151.05L1310.66 1151.05C1310.66 1091.82 1310.66 1058.92 1310.66 1052.33C1310.66 1013.14 1286.64 987.76 1249.44 987.76C1229.82 987.76 1212.9 994.46 1200.56 1007.15C1199.67 1008.06 1195.24 1012.6 1187.26 1020.78L1187.26 992.93L1146.14 992.93L1146.14 1151.05L1187.26 1151.05C1187.26 1107.33 1187.26 1083.05 1187.26 1078.19C1187.26 1027.83 1218.38 1022.43 1231.74 1022.43" id="a20atFkGXq"></path><path d="M1444.24 1156.28C1460.67 1156.28 1472.95 1152.17 1483.43 1147.17C1482.55 1144.25 1475.52 1120.89 1474.64 1117.97C1467.71 1120.44 1460.13 1121.97 1453.75 1121.97C1433.52 1121.97 1422.39 1110.33 1422.39 1089.24C1422.39 1084.74 1422.39 1062.23 1422.39 1021.72L1474.7 1021.72L1474.7 992.93L1422.39 992.93L1422.39 941.86L1381.21 941.86L1381.21 992.93L1349.07 992.93L1349.07 1021.72L1381.21 1021.72C1381.21 1065.54 1381.21 1089.89 1381.21 1094.76C1381.21 1135.01 1403 1156.28 1444.24 1156.28" id="d11JqVhv3X"></path><path d="M1553.5 1059.86C1555.23 1054.07 1556.19 1050.86 1556.38 1050.22C1562.28 1030.71 1580.28 1017.55 1601.23 1017.55C1622.42 1017.55 1638.55 1029.83 1644.33 1050.34C1644.52 1050.97 1645.44 1054.14 1647.1 1059.86L1553.5 1059.86ZM1685.09 1072.02C1684.12 1022.48 1649.69 987.76 1601.23 987.76C1552.05 987.76 1514.97 1024.01 1514.97 1072.02C1514.97 1120.03 1551.87 1156.28 1600.87 1156.28C1626.39 1156.28 1659.62 1148.88 1677.8 1115.09C1674.26 1114.39 1645.95 1108.74 1642.41 1108.04C1633.26 1120.85 1619.59 1127.14 1600.87 1127.14C1578.12 1127.14 1560.6 1112.04 1555.18 1087.77C1555.04 1087.16 1554.36 1084.12 1553.13 1078.66L1685.09 1078.66C1685.09 1075.12 1685.09 1072.9 1685.09 1072.02Z" id="a1Tj7naJI8"></path><path d="M1845.15 1032.06L1848.04 1032.06C1849.16 1007.24 1849.78 993.45 1849.91 990.69C1848.46 990.58 1846.96 990.52 1845.15 990.52C1821.97 990.52 1803.61 1001.27 1790.61 1022.37C1789.66 1023.92 1784.88 1031.7 1776.28 1045.69L1776.28 992.93L1735.17 992.93L1735.17 1151.05L1776.28 1151.05C1776.28 1123.09 1776.28 1107.56 1776.28 1104.46C1776.28 1057.09 1800.12 1032.06 1845.15 1032.06" id="f1AUj4UeOC"></path><path d="M1012.93 1421.59C1029.48 1421.59 1041.7 1417.53 1052.17 1412.48C1051.3 1409.56 1044.26 1386.25 1043.39 1383.33C1036.46 1385.8 1028.88 1387.33 1022.5 1387.33C1002.27 1387.33 991.13 1375.69 991.13 1354.6C991.13 1350.09 991.13 1327.57 991.13 1287.02L1043.39 1287.02L1043.39 1258.29L991.13 1258.29L991.13 1207.23L949.96 1207.23L949.96 1258.29L917.81 1258.29L917.81 1287.02L949.96 1287.02C949.96 1330.88 949.96 1355.25 949.96 1360.12C949.96 1400.32 971.75 1421.59 1012.93 1421.59" id="b1hkhJiIq"></path><path d="M1174.25 1389.74C1145 1389.74 1123.75 1367.7 1123.75 1337.32C1123.75 1307 1145 1284.97 1174.25 1284.97C1202.91 1284.97 1225.36 1307.94 1225.36 1337.32C1225.36 1366.7 1202.91 1389.74 1174.25 1389.74M1266.54 1416.42L1266.54 1258.29L1225.36 1258.29L1225.36 1281.44C1217.67 1274.67 1213.39 1270.91 1212.54 1270.16C1199.6 1258.82 1182.8 1253.12 1162.58 1253.12C1117.61 1253.12 1083.66 1289.32 1083.66 1337.32C1083.66 1385.39 1117.61 1421.59 1162.58 1421.59C1182.8 1421.59 1199.6 1415.83 1212.54 1404.55C1213.39 1403.79 1217.67 1400.03 1225.36 1393.26L1225.36 1416.42L1266.54 1416.42Z" id="gHY0InOY9"></path><path d="M1349.49 1175.85C1335.34 1175.85 1324.63 1186.07 1324.63 1199.71C1324.63 1213.34 1334.86 1222.86 1349.49 1222.86C1364.3 1222.86 1374.65 1213.34 1374.65 1199.71C1374.65 1186.31 1363.57 1175.85 1349.49 1175.85" id="aOJuxLEN2"></path><path d="M1328.9 1416.42L1370.01 1416.42L1370.01 1258.29L1328.9 1258.29L1328.9 1416.42Z" id="a2ubSqCfd0"></path><path d="M1517.32 1287.73C1539.71 1287.73 1555.36 1304.89 1555.36 1329.39C1555.36 1335.19 1555.36 1364.2 1555.36 1416.42L1596.18 1416.42C1596.18 1357.19 1596.18 1324.28 1596.18 1317.7C1596.18 1278.45 1572.16 1253.06 1534.95 1253.06C1515.33 1253.06 1498.48 1259.82 1486.13 1272.51C1485.25 1273.42 1480.81 1277.96 1472.83 1286.14L1472.83 1258.29L1431.66 1258.29L1431.66 1416.42L1472.83 1416.42C1472.83 1372.7 1472.83 1348.41 1472.83 1343.55C1472.83 1293.14 1503.95 1287.73 1517.32 1287.73" id="hMmZUY4R5"></path><path d="M1859.24 1287.73C1880.91 1287.73 1896.68 1304.36 1896.68 1327.33C1896.68 1333.27 1896.68 1362.97 1896.68 1416.42L1937.43 1416.42C1937.43 1355.95 1937.43 1322.36 1937.43 1315.64C1937.43 1279.39 1912.15 1253.06 1877.3 1253.06C1853.7 1253.06 1834.07 1262.23 1820.47 1279.5C1820.02 1280.08 1817.75 1282.96 1813.67 1288.14C1810.16 1282.57 1808.22 1279.48 1807.83 1278.86C1797.41 1262.46 1778.69 1253.06 1756.42 1253.06C1736.8 1253.06 1721.14 1259.35 1709.89 1271.63C1708.99 1272.61 1704.49 1277.51 1696.4 1286.32L1696.4 1258.29L1655.29 1258.29L1655.29 1416.42L1696.4 1416.42C1696.4 1370.02 1696.4 1344.24 1696.4 1339.09C1696.4 1306.94 1711.93 1287.73 1738.06 1287.73C1759.91 1287.73 1775.8 1304.36 1775.8 1327.33C1775.8 1333.27 1775.8 1362.97 1775.8 1416.42L1816.92 1416.42C1816.92 1370.02 1816.92 1344.24 1816.92 1339.09C1816.92 1307.41 1833.17 1287.73 1859.24 1287.73" id="c3hy73KkBN"></path><path d="M2024.18 1325.22C2025.91 1319.44 2026.87 1316.23 2027.07 1315.58C2032.9 1296.02 2050.96 1282.91 2071.91 1282.91C2093.1 1282.91 2109.17 1295.13 2115.01 1315.7C2115.19 1316.33 2116.1 1319.51 2117.72 1325.22L2024.18 1325.22ZM2155.77 1337.32C2154.8 1287.79 2120.31 1253.12 2071.91 1253.12C2022.67 1253.12 1985.59 1289.32 1985.59 1337.32C1985.59 1385.39 2022.55 1421.59 2071.55 1421.59C2097.08 1421.59 2130.24 1414.18 2148.48 1380.4C2144.94 1379.69 2116.63 1374.05 2113.09 1373.34C2103.94 1386.21 2090.27 1392.5 2071.55 1392.5C2048.8 1392.5 2031.28 1377.4 2025.86 1353.07C2025.73 1352.46 2025.04 1349.43 2023.82 1343.96L2155.77 1343.96C2155.77 1340.42 2155.77 1338.21 2155.77 1337.32Z" id="eT7L0nRmH"></path><path d="M2291.45 1287.73C2313.84 1287.73 2329.56 1304.89 2329.56 1329.39C2329.56 1335.19 2329.56 1364.2 2329.56 1416.42L2370.31 1416.42C2370.31 1357.19 2370.31 1324.28 2370.31 1317.7C2370.31 1278.45 2346.29 1253.06 2309.09 1253.06C2289.46 1253.06 2272.61 1259.82 2260.27 1272.51C2259.38 1273.42 2254.95 1277.96 2246.97 1286.14L2246.97 1258.29L2205.79 1258.29L2205.79 1416.42L2246.97 1416.42C2246.97 1372.7 2246.97 1348.41 2246.97 1343.55C2246.97 1293.14 2278.09 1287.73 2291.45 1287.73" id="h1Ot6YCDwf"></path><path d="M2506.48 1414.07C2522.91 1414.07 2535.19 1410.01 2545.66 1404.96C2544.78 1402.04 2537.75 1378.73 2536.87 1375.81C2530.01 1378.28 2522.37 1379.81 2515.99 1379.81C2495.76 1379.81 2484.62 1368.17 2484.62 1347.08C2484.62 1342.57 2484.62 1320.05 2484.62 1279.5L2536.94 1279.5L2536.94 1250.77L2484.62 1250.77L2484.62 1199.71L2443.45 1199.71L2443.45 1250.77L2411.3 1250.77L2411.3 1279.5L2443.45 1279.5C2443.45 1323.36 2443.45 1347.73 2443.45 1352.6C2443.45 1392.79 2465.24 1414.07 2506.48 1414.07" id="a1eOHGq9O6"></path><path d="M1631.09 685.26C1601.29 713.17 1565.41 727.39 1524.42 727.39C1483.73 727.39 1448.03 713.17 1418.23 685.26C1388.07 656.93 1372.78 622.68 1372.78 583.54C1372.78 557.75 1379.89 533.54 1393.91 511.68C1407.82 490.05 1426.72 472.54 1450.02 459.67C1497.45 434.29 1553.92 434.99 1599.31 459.67C1622.6 472.54 1641.5 490.05 1655.47 511.68C1669.43 533.59 1676.54 557.75 1676.54 583.54C1676.54 622.68 1661.25 656.93 1631.09 685.26M1836.72 869.18L1836.72 303.84L1676.54 304.19L1676.54 339.39C1669.96 336.39 1666.31 334.73 1665.58 334.4C1656.43 330.22 1648.73 327.05 1641.38 324.41C1565.59 296.96 1481.92 297.02 1407.52 324.88C1370.07 338.21 1336.85 357.72 1308.61 382.87C1280.02 408.08 1257.21 438.05 1240.83 472.07C1224.52 506.27 1216.27 543.82 1216.27 583.54C1216.27 636.25 1230.54 684.61 1258.71 727.39C1286.58 769.52 1324.75 803.37 1372.24 827.87C1419.74 852.08 1470.9 864.36 1524.42 864.36C1564.99 864.36 1604.3 857.31 1641.32 843.32C1646.5 841.62 1654.39 838.5 1665.82 833.63C1666.54 833.33 1670.11 831.82 1676.54 829.1L1676.54 870.65L1836.72 869.18Z" id="a14FnyxOiC"></path><path d="M844.13 908.14L844.13 299.08L688.16 299.08C688.16 491.47 688.16 598.36 688.16 619.74C688.16 671.8 644.76 714.17 591.43 714.17C538.03 714.17 494.57 671.8 494.57 619.74C494.57 598.66 494.57 493.28 494.57 303.6L338.6 303.6C338.6 493.28 338.6 598.66 338.6 619.74C338.6 755.77 452.01 866.47 591.43 866.47C620.56 866.47 649.64 861.36 677.87 851.26C678.55 851.01 681.99 849.77 688.16 847.55C688.16 883.9 688.16 904.1 688.16 908.14C688.16 957.73 648.91 998.51 599.13 1002.33C599.13 1017.57 599.13 1139.51 599.13 1154.75C734.94 1150.76 844.13 1041.7 844.13 908.14" id="a1FRVehAr"></path><path d="M1180.51 457.56L1201.22 457.56L1201.22 305.31C1188.8 305.31 1181.89 305.31 1180.51 305.31C1041.16 305.31 927.75 416.01 927.75 552.05C927.75 573.42 927.75 680.31 927.75 872.7L1083.72 872.7C1083.72 680.31 1083.72 573.42 1083.72 552.05C1083.72 499.92 1127.12 457.56 1180.51 457.56" id="b2nIGVErW"></path><path d="M278.7 872.7L299.35 872.7L299.35 720.45C286.96 720.45 280.08 720.45 278.7 720.45C225.31 720.45 181.84 678.03 181.84 625.97C181.84 593.46 181.84 430.95 181.84 138.43L25.93 138.43C25.93 430.95 25.93 593.46 25.93 625.97C25.93 762 139.29 872.7 278.7 872.7" id="a1QNO0Wdhh"></path></defs><g><g><g><use xlink:href="#dFcovxbUx" opacity="1" fill="#ffffff" fill-opacity="1"></use><g><use xlink:href="#dFcovxbUx" opacity="1" fill-opacity="0" stroke="#000000" stroke-width="1" stroke-opacity="0"></use></g></g><g><use xlink:href="#a20atFkGXq" opacity="1" fill="#ffffff" fill-opacity="1"></use><g><use xlink:href="#a20atFkGXq" opacity="1" fill-opacity="0" stroke="#000000" stroke-width="1" stroke-opacity="0"></use></g></g><g><use xlink:href="#d11JqVhv3X" opacity="1" fill="#ffffff" fill-opacity="1"></use><g><use xlink:href="#d11JqVhv3X" opacity="1" fill-opacity="0" stroke="#000000" stroke-width="1" stroke-opacity="0"></use></g></g><g><use xlink:href="#a1Tj7naJI8" opacity="1" fill="#ffffff" fill-opacity="1"></use><g><use xlink:href="#a1Tj7naJI8" opacity="1" fill-opacity="0" stroke="#000000" stroke-width="1" stroke-opacity="0"></use></g></g><g><use xlink:href="#f1AUj4UeOC" opacity="1" fill="#ffffff" fill-opacity="1"></use><g><use xlink:href="#f1AUj4UeOC" opacity="1" fill-opacity="0" stroke="#000000" stroke-width="1" stroke-opacity="0"></use></g></g><g><use xlink:href="#b1hkhJiIq" opacity="1" fill="#ffffff" fill-opacity="1"></use><g><use xlink:href="#b1hkhJiIq" opacity="1" fill-opacity="0" stroke="#000000" stroke-width="1" stroke-opacity="0"></use></g></g><g><use xlink:href="#gHY0InOY9" opacity="1" fill="#ffffff" fill-opacity="1"></use><g><use xlink:href="#gHY0InOY9" opacity="1" fill-opacity="0" stroke="#000000" stroke-width="1" stroke-opacity="0"></use></g></g><g><use xlink:href="#aOJuxLEN2" opacity="1" fill="#ffffff" fill-opacity="1"></use><g><use xlink:href="#aOJuxLEN2" opacity="1" fill-opacity="0" stroke="#000000" stroke-width="1" stroke-opacity="0"></use></g></g><g><use xlink:href="#a2ubSqCfd0" opacity="1" fill="#ffffff" fill-opacity="1"></use><g><use xlink:href="#a2ubSqCfd0" opacity="1" fill-opacity="0" stroke="#000000" stroke-width="1" stroke-opacity="0"></use></g></g><g><use xlink:href="#hMmZUY4R5" opacity="1" fill="#ffffff" fill-opacity="1"></use><g><use xlink:href="#hMmZUY4R5" opacity="1" fill-opacity="0" stroke="#000000" stroke-width="1" stroke-opacity="0"></use></g></g><g><use xlink:href="#c3hy73KkBN" opacity="1" fill="#ffffff" fill-opacity="1"></use><g><use xlink:href="#c3hy73KkBN" opacity="1" fill-opacity="0" stroke="#000000" stroke-width="1" stroke-opacity="0"></use></g></g><g><use xlink:href="#eT7L0nRmH" opacity="1" fill="#ffffff" fill-opacity="1"></use><g><use xlink:href="#eT7L0nRmH" opacity="1" fill-opacity="0" stroke="#000000" stroke-width="1" stroke-opacity="0"></use></g></g><g><use xlink:href="#h1Ot6YCDwf" opacity="1" fill="#ffffff" fill-opacity="1"></use><g><use xlink:href="#h1Ot6YCDwf" opacity="1" fill-opacity="0" stroke="#000000" stroke-width="1" stroke-opacity="0"></use></g></g><g><use xlink:href="#a1eOHGq9O6" opacity="1" fill="#ffffff" fill-opacity="1"></use><g><use xlink:href="#a1eOHGq9O6" opacity="1" fill-opacity="0" stroke="#000000" stroke-width="1" stroke-opacity="0"></use></g></g><g><use xlink:href="#a14FnyxOiC" opacity="1" fill="#ffffff" fill-opacity="1"></use><g><use xlink:href="#a14FnyxOiC" opacity="1" fill-opacity="0" stroke="#000000" stroke-width="1" stroke-opacity="0"></use></g></g><g><use xlink:href="#a1FRVehAr" opacity="1" fill="#ffffff" fill-opacity="1"></use><g><use xlink:href="#a1FRVehAr" opacity="1" fill-opacity="0" stroke="#000000" stroke-width="1" stroke-opacity="0"></use></g></g><g><use xlink:href="#b2nIGVErW" opacity="1" fill="#ffffff" fill-opacity="1"></use><g><use xlink:href="#b2nIGVErW" opacity="1" fill-opacity="0" stroke="#000000" stroke-width="1" stroke-opacity="0"></use></g></g><g><use xlink:href="#a1QNO0Wdhh" opacity="1" fill="#ffffff" fill-opacity="1"></use><g><use xlink:href="#a1QNO0Wdhh" opacity="1" fill-opacity="0" stroke="#000000" stroke-width="1" stroke-opacity="0"></use></g></g></g></g></svg>