<?xml version="1.0" encoding="UTF-8"?>
<svg width="236px" height="72px" viewBox="0 0 236 72" version="1.1" xmlns="http://www.w3.org/2000/svg" xmlns:xlink="http://www.w3.org/1999/xlink">
    <!-- Generator: Sketch 47.1 (45422) - http://www.bohemiancoding.com/sketch -->
    <title>Page 1</title>
    <desc>Created with Sketch.</desc>
    <defs></defs>
    <g id="Page-1" stroke="none" stroke-width="1" fill="none" fill-rule="evenodd">
        <g id="good_times_landing" transform="translate(-565.000000, -24.000000)" fill="#FFFFFF">
            <g id="Group" transform="translate(97.000000, 24.000000)">
                <g id="Page-1" transform="translate(468.000000, 0.000000)">
                    <path d="M12.1376779,49.5963624 L21.2014809,41.4337243 L30.8571429,52.1028783 L27.2317317,55.3682628 L25.1041197,53.0170323 L24.5601155,53.507032 C25.0282121,54.5084312 25.1602253,55.5844553 24.9572551,56.7329092 C24.7537348,57.8819119 23.9677065,59.0731655 22.59807,60.3066698 C21.6316238,61.1774756 20.5612171,61.8128839 19.3879502,62.2134436 C18.2146833,62.6134546 16.9930116,62.7385609 15.7234851,62.5871164 C14.4534086,62.4362206 13.1596797,61.9967024 11.8422985,61.268013 C10.5254673,60.5393236 9.23008823,59.4726277 7.95726142,58.0657304 L3.48421579,53.1229337 C2.2476926,51.7566411 1.348353,50.3689487 0.786196996,48.9604053 C0.224591045,47.5518619 -0.03613493,46.1729489 0.00401907042,44.8236664 C0.0441730708,43.4743838 0.380256554,42.1788751 1.0100693,40.9365913 C1.64098216,39.6943076 2.5397717,38.5469511 3.70808809,37.4945217 C4.91655849,36.406426 6.17123349,35.6321935 7.47266314,35.1707268 C8.7740928,34.7103575 10.070572,34.5270878 11.3626507,34.6214662 C12.6547294,34.7163934 13.8945529,35.0768971 15.0826713,35.7024286 C16.2707897,36.3285089 17.3466969,37.1740739 18.3103929,38.238575 L18.6376755,38.6001761 L14.6492281,42.1920442 L14.3219455,41.830443 C13.1767314,40.5645647 11.9809123,39.9006233 10.7355882,39.836424 C9.49026415,39.7733221 8.27244282,40.2764909 7.08432446,41.3464791 C5.95616206,42.3626935 5.37090375,43.5737007 5.32744942,44.9800493 C5.28454515,46.3863978 6.09037543,48.0045492 7.74494027,49.8328572 L11.7817924,54.2933362 C14.7273359,57.5482951 17.5298651,57.9784852 20.18883,55.5844553 C21.3769484,54.5139184 21.9919096,53.3857667 22.0337138,52.1994516 C22.0749679,51.0136852 21.6145721,49.8882771 20.650326,48.8226786 L15.5744203,53.3939974 L12.1376779,49.5963624 Z" id="Fill-1"></path>
                    <path d="M39.6973706,41.9974157 C40.3406998,41.6470872 40.8899235,41.2089021 41.3444915,40.6828603 C41.7990594,40.1573676 42.1303546,39.5764153 42.3378269,38.9378072 C42.5458495,38.3002972 42.6151904,37.6221536 42.5463999,36.9028271 C42.4781596,36.1845988 42.2420705,35.4564867 41.8386827,34.7190398 L41.4479524,34.0057535 C41.0445647,33.2694048 40.5586283,32.6774705 39.9895929,32.2310488 C39.4205575,31.7851762 38.8107981,31.4771287 38.160865,31.3063573 C37.5103816,31.136135 36.8411872,31.0993451 36.1521811,31.1970856 C35.463175,31.2948261 34.7967322,31.5188606 34.153403,31.8697382 C33.5100739,32.2200667 32.9614005,32.6582518 32.5062822,33.1837445 C32.0517143,33.7092372 31.720419,34.2912876 31.5129467,34.9287976 C31.3054745,35.5674057 31.2361336,36.2455494 31.3043738,36.9637777 C31.3731644,37.6836532 31.6092535,38.4112163 32.0126413,39.1481141 L32.4028212,39.8608513 C32.8067593,40.5982982 33.2926957,41.1896834 33.8617311,41.635556 C34.4307665,42.0825268 35.0405259,42.3905743 35.690459,42.5607965 C36.340392,42.7315679 37.0101368,42.7672597 37.6991429,42.6700683 C38.388149,42.5723277 39.0540415,42.3482932 39.6973706,41.9974157 L39.6973706,41.9974157 Z M46.2638409,32.1223261 C47.0706164,33.5966709 47.5328889,35.0347747 47.6506583,36.4366377 C47.7684277,37.8385006 47.6099343,39.1596453 47.1751781,40.3995225 C46.7404218,41.6399488 46.0794823,42.7639651 45.1923594,43.7715713 C44.3057869,44.7791774 43.2546673,45.6143649 42.0395511,46.2765845 C40.8244349,46.9393533 39.552085,47.3698509 38.2230517,47.5697248 C36.8940184,47.7695988 35.5891993,47.7168848 34.3085945,47.4110337 C33.0279897,47.1062809 31.8282826,46.5253287 30.7094732,45.6687262 C29.5912141,44.8121237 28.6286968,43.6469246 27.8213709,42.1725799 L27.5874831,41.7448277 C26.793365,40.2946436 26.3376964,38.8686201 26.219927,37.4667571 C26.1021576,36.0648941 26.2573491,34.7371602 26.6855014,33.4857518 C27.1142041,32.2332452 27.7718417,31.1037379 28.6584143,30.0955826 C29.5449868,29.0879765 30.5961064,28.2522399 31.8112225,27.5900203 C33.0263387,26.9278006 34.2986887,26.4973029 35.627722,26.297429 C36.9573057,26.0981042 38.2648763,26.1563093 39.552085,26.4736915 C40.839844,26.7910737 42.0428531,27.378066 43.1605619,28.2341195 C44.2793713,29.0912711 45.235835,30.2443899 46.0294028,31.694574 L46.2638409,32.1223261 Z" id="Fill-3"></path>
                    <path d="M63.0689773,32.1546355 C63.7701618,31.9239929 64.3931905,31.5896163 64.939172,31.1520574 C65.4851536,30.7144986 65.9186131,30.199691 66.2401047,29.6054276 C66.5615964,29.0128195 66.7533828,28.3551018 66.815464,27.6317227 C66.8780994,26.9088953 66.776109,26.1468918 66.5100469,25.3457122 L66.2528535,24.5699143 C65.9867915,23.7692864 65.6120874,23.0966707 65.1292956,22.5531708 C64.6465037,22.0096708 64.098305,21.5952866 63.4846993,21.3094663 C62.871648,21.0241978 62.2148072,20.8669414 61.5141771,20.8399044 C60.8141012,20.8123156 60.1129168,20.9138425 59.4122866,21.1444851 C58.7111022,21.3751277 58.0880735,21.7095043 57.542092,22.1470632 C56.9961104,22.584622 56.5626509,23.1005332 56.2411592,23.693693 C55.9196676,24.2868529 55.7278812,24.9445706 55.6658,25.6673979 C55.6031646,26.3907771 55.705155,27.1527806 55.9712171,27.9534084 L56.2284104,28.7292063 C56.4950268,29.530386 56.8691766,30.2024499 57.3519684,30.7459498 C57.8353145,31.2900016 58.382959,31.7043858 58.9965646,31.9896543 C59.609616,32.2754746 60.2664568,32.4316274 60.9670869,32.4592162 C61.6671628,32.486805 62.3677929,32.3852781 63.0689773,32.1546355 L63.0689773,32.1546355 Z M71.3656798,23.5756128 C71.897804,25.1779721 72.0951333,26.6826669 71.9576679,28.0896972 C71.8202025,29.4972794 71.4233266,30.7746422 70.7675944,31.9217858 C70.1124166,33.0694811 69.2538121,34.0615755 68.1923352,34.8980688 C67.1308584,35.7345621 65.9380134,36.3707606 64.6138003,36.8066641 C63.2895871,37.2425676 61.9509623,37.4390001 60.5979258,37.3970651 C59.2448893,37.35513 57.9611397,37.0682062 56.7477858,36.5357418 C55.5338776,36.0038291 54.4507832,35.2131332 53.4973941,34.1647577 C52.5451135,33.1169339 51.8023569,31.7915665 51.2702328,30.1886555 L51.1155842,29.7235078 C50.5923287,28.1476338 50.3988794,26.6556298 50.5363449,25.2480477 C50.6743646,23.8415691 51.068469,22.5570332 51.7197668,21.396647 C52.3710646,20.2362608 53.2280062,19.2380969 54.2889287,18.4010518 C55.3504056,17.5645584 56.5432506,16.92836 57.8674637,16.4924565 C59.1911225,16.056553 60.5303017,15.8601205 61.8833382,15.9015038 C63.2363747,15.9445423 64.5223414,16.2375357 65.7401297,16.782691 C66.957918,17.3278463 68.0437839,18.1251635 68.9960644,19.1729873 C69.9494535,20.2213628 70.6877758,21.5340394 71.2110312,23.1099134 L71.3656798,23.5756128 Z" id="Fill-5"></path>
                    <path d="M86.2801227,26.5545961 C87.8436711,26.2880357 89.0247767,25.569865 89.8250738,24.4006344 C90.6248261,23.2308532 90.8885046,21.8292085 90.6161094,20.194599 L90.5360252,19.7126975 C90.2630853,18.0786387 89.5592161,16.8411159 88.4244177,16.0012306 C87.2896193,15.1613453 85.9401735,14.8744074 84.3766251,15.1409677 C82.8125319,15.407528 81.6287024,16.112481 80.8245918,17.254725 C80.0204812,18.3980705 79.7589818,19.812933 80.0406384,21.5009648 L80.1212674,21.983417 C80.4023792,23.6714488 81.1078828,24.9221895 82.2388676,25.7345375 C83.3693077,26.5479871 84.7160295,26.8211564 86.2801227,26.5545961 L86.2801227,26.5545961 Z M91.7552661,27.0265841 L91.0399563,27.1488493 C90.903214,27.6406642 90.7174404,28.1198118 90.482091,28.5868431 C90.2467415,29.0544252 89.9106059,29.4900641 89.4742288,29.895412 C89.0373069,30.3002092 88.4968748,30.6537871 87.8523878,30.9566966 C87.2079008,31.2590553 86.4081485,31.4920202 85.4542205,31.6550406 C84.2349796,31.8626712 83.0653146,31.8345833 81.9446808,31.5707767 C80.8235022,31.3075208 79.799841,30.8068941 78.8731526,30.0694473 C77.9464641,29.3320004 77.159242,28.3709513 76.5120311,27.1857492 C75.8648201,26.0016486 75.405017,24.5922935 75.132077,22.9576839 L75.0116783,22.2340057 C74.7436415,20.6263826 74.7365592,19.1536919 74.9904315,17.8153829 C75.243759,16.4776245 75.7019277,15.3039881 76.3654824,14.2950242 C77.0284923,13.2871618 77.8587529,12.4637989 78.8568089,11.8249353 C79.8537753,11.1866224 80.948804,10.7658537 82.1413501,10.562629 C83.7315933,10.2916627 85.0401798,10.3781296 86.0687441,10.8231311 C87.0967635,11.2681326 87.9673386,11.9945646 88.681014,13.002427 L89.3963237,12.8801617 L87.5467604,1.78871886 L92.5555632,0.935064935 L97.2467532,29.0665416 L92.2379504,29.9201955 L91.7552661,27.0265841 Z" id="Fill-7"></path>
                    <polygon id="Fill-9" points="127.693615 0 147.74026 2.15340938 147.216016 7.29464654 139.817155 6.50014715 137.427252 29.9220779 132.176709 29.3582218 134.566612 5.93629099 127.168831 5.14123717"></polygon>
                    <path d="M169.120251,9.42673437 C168.984886,9.94531596 168.758163,10.406458 168.439525,10.8101605 C168.121445,11.2144049 167.746545,11.5357412 167.316495,11.7741695 C166.885332,12.0125978 166.411275,12.1708275 165.894882,12.2499424 C165.377932,12.3290572 164.865995,12.3062982 164.360186,12.1811233 C163.827081,12.0494459 163.360266,11.8305253 162.958069,11.5243617 C162.555873,11.218198 162.223866,10.8605556 161.962606,10.4508924 C161.700788,10.0417711 161.529214,9.58550596 161.448441,9.08263896 C161.366553,8.58031385 161.393849,8.0698605 161.528657,7.55127891 C161.664022,7.0332392 161.890745,6.57209716 162.209383,6.16785279 C162.526906,5.7641503 162.901249,5.44281395 163.332413,5.20438564 C163.763019,4.96595732 164.230391,4.80556009 164.733972,4.72319394 C165.237553,4.64028591 165.755617,4.66521251 166.288722,4.79688997 C166.793974,4.92206483 167.255219,5.13881785 167.670785,5.44877466 C168.085793,5.75818959 168.424485,6.1179996 168.686859,6.52712091 C168.947563,6.93678411 169.119694,7.39304921 169.201024,7.89537432 C169.282355,8.39824132 169.255059,8.90869467 169.120251,9.42673437 L169.120251,9.42673437 Z M150.827563,26.5448038 L157.540118,28.2035062 L160.137682,18.2540009 L153.905311,16.7139707 L155.123041,12.0499877 L166.390107,14.8341802 L162.574256,29.4471266 L168.327557,30.8690264 L167.109827,35.5324675 L149.61039,31.2087868 L150.827563,26.5448038 Z" id="Fill-11"></path>
                    <path d="M191.306873,45.8181818 L186.595673,43.7689165 L192.319768,30.9046601 C192.549946,30.3872957 192.591897,29.9425151 192.44562,29.5697725 C192.298792,29.19703 192.013415,28.918701 191.590042,28.7342398 C191.091047,28.5170341 190.632346,28.4941129 190.214493,28.6654762 C189.79664,28.8362938 189.455512,29.2177682 189.192767,29.8093537 L183.567478,42.4520384 L178.856278,40.402773 L184.580372,27.5385167 C184.810551,27.0211522 184.839806,26.5703684 184.66869,26.1872568 C184.497023,25.8035994 184.211646,25.5247247 183.813112,25.3517241 C183.364347,25.1563481 182.924415,25.141613 182.493866,25.3075189 C182.063317,25.4728791 181.716669,25.8516248 181.45282,26.4432103 L175.827531,39.0853492 L171.116883,37.0360839 L179.275235,18.7012987 L183.986436,20.7500183 L183.197096,22.5247749 L183.869415,22.8172932 C184.315419,22.2169757 184.901628,21.8174918 185.63025,21.6193871 C186.357215,21.4218281 187.157043,21.5118757 188.029733,21.8917129 C188.852744,22.2491746 189.454408,22.768722 189.836383,23.4492637 C190.217253,24.1298053 190.359665,24.8458203 190.263068,25.5984 L190.935939,25.8909183 C191.431622,25.3124306 192.093453,24.9456912 192.92088,24.7907002 C193.748307,24.6362549 194.634797,24.7645045 195.582556,25.1765406 C196.828941,25.7184635 197.642568,26.5654568 198.022886,27.7158832 C198.402653,28.8668554 198.269624,30.1695442 197.622697,31.6234038 L191.306873,45.8181818 Z" id="Fill-13"></path>
                    <path d="M210.687839,39.3746657 C209.609138,38.6200244 208.535478,38.2764078 207.467419,38.3432678 C206.39936,38.4106758 205.507163,38.7252467 204.79083,39.2875285 L212.680579,44.8062197 C213.107914,43.9419719 213.15216,43.0097679 212.814436,42.0085118 C212.475032,41.0072557 211.767099,40.129307 210.687839,39.3746657 L210.687839,39.3746657 Z M202.120402,42.8031595 C201.788838,43.3029655 201.581611,43.8307212 201.498161,44.3869746 C201.41359,44.943776 201.449434,45.4994813 201.603454,46.0557347 C201.757474,46.6125362 202.015668,47.1419359 202.378595,47.6450301 C202.741523,48.1481243 203.192381,48.5881947 203.731732,48.9657894 C204.788029,49.7045378 205.729512,50.0892568 206.5573,50.1193987 C207.383968,50.1495405 208.105902,49.9982834 208.723103,49.6650794 L210.918029,54.1918311 C210.410603,54.4685877 209.811885,54.706434 209.122995,54.9053699 C208.434105,55.1048539 207.666245,55.1908951 206.820535,55.1640415 C205.973704,55.1371878 205.051824,54.9574331 204.054894,54.6253251 C203.057404,54.2932172 202.007827,53.7418961 200.906723,52.9719099 C199.647679,52.091221 198.646269,51.091061 197.901932,49.9719778 C197.157035,48.8528946 196.680972,47.6565388 196.474866,46.3818143 C196.267639,45.1070898 196.349969,43.7857825 196.721858,42.4167963 C197.093186,41.0483582 197.777035,39.6826602 198.773965,38.3186063 L198.917904,38.1207664 C199.834184,36.8668672 200.888801,35.8771198 202.082877,35.1498801 C203.276392,34.4226405 204.519755,33.9628409 205.814643,33.7721254 C207.108412,33.5808619 208.415622,33.6395015 209.736275,33.948044 C211.055807,34.2565865 212.300289,34.8194163 213.469721,35.6370814 C214.907429,36.6432698 215.963167,37.7552285 216.635814,38.9740537 C217.307902,40.1917828 217.704434,41.4160882 217.824289,42.6469701 C217.944705,43.877304 217.82765,45.0588629 217.475924,46.1916469 C217.123638,47.3244309 216.634694,48.3202067 216.007972,49.1778781 L214.392722,51.3880948 L202.120402,42.8031595 Z" id="Fill-15"></path>
                    <path d="M227.08142,56.5180736 C226.581492,56.9128488 226.428662,57.455866 226.621853,58.1481996 C226.815043,58.839996 227.382775,59.9297903 228.32505,61.415971 C229.40993,63.1261262 229.958827,64.7884787 229.969052,66.4024913 C229.979815,68.016504 229.287235,69.3748528 227.892927,70.4764634 L227.705118,70.6247055 C226.164438,71.8417946 224.491915,72.2510717 222.686472,71.8525368 C220.880491,71.454539 219.170298,70.2369128 217.555893,68.2012695 C216.599628,66.9959968 215.940412,65.844435 215.577171,64.746047 C215.213392,63.6471219 215.043879,62.632523 215.067019,61.701713 C215.090697,60.7703659 215.268282,59.928716 215.602463,59.1751521 C215.935569,58.421051 216.331636,57.7792056 216.791204,57.2474677 L220.844436,59.9249563 C220.310068,60.6172898 220.003869,61.426176 219.924225,62.3505407 C219.844581,63.2749054 220.241187,64.2873559 221.115118,65.3889666 C221.889494,66.3648937 222.571311,66.9159676 223.162183,67.041114 C223.751979,67.1662604 224.223385,67.0894538 224.578016,66.80962 C224.785736,66.6452646 224.941257,66.4459972 225.044579,66.2128918 C225.146825,65.9797865 225.178037,65.676857 225.136062,65.3041033 C225.094626,64.9313497 224.956325,64.4909202 224.723313,63.9828151 C224.489224,63.4747099 224.148046,62.8736849 223.700318,62.1802771 C222.460993,60.3208056 221.814155,58.5762755 221.758189,56.9472237 C221.702761,55.3187091 222.413099,53.9206143 223.891356,52.7524021 L224.079165,52.60416 C224.849236,51.9961526 225.657515,51.6276958 226.504001,51.4993267 C227.349949,51.3714948 228.190516,51.4166119 229.025163,51.6368266 C229.859272,51.8559671 230.660017,52.2367774 231.429012,52.7787205 C232.196931,53.3206635 232.878209,53.9657314 233.471772,54.7133872 C234.24561,55.6898515 234.797737,56.6314036 235.126537,57.5369695 C235.455876,58.4430724 235.625388,59.2976129 235.635613,60.1000538 C235.646376,60.903569 235.541439,61.6453165 235.320266,62.3269079 C235.098554,63.0084993 234.834868,63.6046903 234.530284,64.1165552 L230.276327,61.6990274 C230.690153,61.0679243 230.876347,60.396538 230.837064,59.6848685 C230.796703,58.9726619 230.48889,58.2523987 229.91201,57.5256902 C229.384637,56.8607492 228.869104,56.4568432 228.367024,56.3134351 C227.86333,56.1705641 227.434974,56.2382398 227.08142,56.5180736" id="Fill-17"></path>
                </g>
            </g>
        </g>
    </g>
</svg>