<?xml version="1.0" encoding="UTF-8" standalone="no"?>
<!DOCTYPE svg PUBLIC "-//W3C//DTD SVG 1.1//EN" "http://www.w3.org/Graphics/SVG/1.1/DTD/svg11.dtd">
<svg version="1.1" xmlns="http://www.w3.org/2000/svg" xmlns:xlink="http://www.w3.org/1999/xlink" preserveAspectRatio="xMidYMid meet" viewBox="0 0 640 640" width="900" height="900"><defs><path d="M361.16 493.16C361.78 491.05 362.12 489.87 362.19 489.64C364.3 482.5 370.73 477.68 378.23 477.68C385.78 477.68 391.54 482.17 393.63 489.68C393.69 489.91 394.01 491.07 394.59 493.16L361.16 493.16ZM408.16 497.61C407.84 479.49 395.52 466.78 378.23 466.78C360.64 466.78 347.4 480.05 347.4 497.61C347.4 515.18 360.6 528.45 378.1 528.45C387.22 528.45 399.07 525.74 405.56 513.37C404.3 513.12 394.2 511.05 392.94 510.79C389.65 515.48 384.79 517.78 378.1 517.78C369.95 517.78 363.7 512.26 361.76 503.38C361.72 503.15 361.48 502.04 361.05 500.04L408.16 500.04C408.16 498.75 408.16 497.94 408.16 497.61Z" id="g1elDoUZlA"></path><path d="M456.63 479.47C464.65 479.47 470.24 485.72 470.24 494.71C470.24 496.83 470.24 507.44 470.24 526.53L484.81 526.53C484.81 504.86 484.81 492.82 484.81 490.41C484.81 476.07 476.24 466.78 462.95 466.78C455.94 466.78 449.9 469.23 445.49 473.88C445.17 474.21 443.59 475.87 440.74 478.86L440.74 468.67L426.05 468.67L426.05 526.53L440.74 526.53C440.74 510.54 440.74 501.65 440.74 499.87C440.74 481.44 451.85 479.47 456.63 479.47" id="g8dJZUyjT"></path><path d="M532.53 528.45C538.4 528.45 542.78 526.94 546.52 525.11C546.21 524.04 543.7 515.5 543.38 514.43C540.91 515.33 538.2 515.89 535.92 515.89C528.7 515.89 524.72 511.63 524.72 503.91C524.72 502.27 524.72 494.03 524.72 479.21L543.41 479.21L543.41 468.67L524.72 468.67L524.72 449.99L510.01 449.99L510.01 468.67L498.53 468.67L498.53 479.21L510.01 479.21C510.01 495.24 510.01 504.15 510.01 505.93C510.01 520.66 517.8 528.45 532.53 528.45" id="a3ho7clY8"></path><path d="M571.55 493.16C572.17 491.05 572.51 489.87 572.58 489.64C574.69 482.5 581.12 477.68 588.6 477.68C596.17 477.68 601.93 482.17 604 489.68C604.06 489.91 604.39 491.07 604.98 493.16L571.55 493.16ZM618.55 497.61C618.21 479.49 605.91 466.78 588.6 466.78C571.03 466.78 557.79 480.05 557.79 497.61C557.79 515.18 570.97 528.45 588.47 528.45C597.59 528.45 609.46 525.74 615.95 513.37C614.69 513.12 604.57 511.05 603.31 510.79C600.04 515.48 595.16 517.78 588.47 517.78C580.34 517.78 574.09 512.26 572.15 503.38C572.1 503.15 571.86 502.04 571.42 500.04L618.55 500.04C618.55 498.75 618.55 497.94 618.55 497.61Z" id="aMJeLJfC6"></path><path d="M675.72 482.99L676.76 482.99C677.16 473.91 677.38 468.86 677.42 467.85C676.91 467.81 676.37 467.79 675.72 467.79C667.45 467.79 660.89 471.73 656.24 479.44C655.9 480.01 654.2 482.86 651.13 487.98L651.13 468.67L636.44 468.67L636.44 526.53L651.13 526.53C651.13 516.3 651.13 510.62 651.13 509.48C651.13 492.15 659.64 482.99 675.72 482.99" id="h30sK00wU"></path><path d="M378.47 625.53C384.38 625.53 388.75 624.04 392.49 622.19C392.17 621.13 389.66 612.59 389.35 611.53C386.88 612.43 384.17 612.99 381.89 612.99C374.66 612.99 370.69 608.73 370.69 601.01C370.69 599.37 370.69 591.12 370.69 576.29L389.35 576.29L389.35 565.77L370.69 565.77L370.69 547.09L355.98 547.09L355.98 565.77L344.5 565.77L344.5 576.29L355.98 576.29C355.98 592.34 355.98 601.25 355.98 603.04C355.98 617.74 363.76 625.53 378.47 625.53" id="a16tUftSqt"></path><path d="M436.09 613.87C425.64 613.87 418.05 605.81 418.05 594.69C418.05 583.6 425.64 575.53 436.09 575.53C446.33 575.53 454.35 583.94 454.35 594.69C454.35 605.44 446.33 613.87 436.09 613.87M469.05 623.63L469.05 565.77L454.35 565.77L454.35 574.24C451.6 571.77 450.07 570.39 449.77 570.12C445.14 565.97 439.15 563.88 431.92 563.88C415.86 563.88 403.73 577.13 403.73 594.69C403.73 612.28 415.86 625.53 431.92 625.53C439.15 625.53 445.14 623.42 449.77 619.29C450.07 619.02 451.6 617.64 454.35 615.16L454.35 623.63L469.05 623.63Z" id="a2gAvuAhsu"></path><path d="M498.68 535.61C493.63 535.61 489.8 539.35 489.8 544.34C489.8 549.32 493.46 552.81 498.68 552.81C503.97 552.81 507.67 549.32 507.67 544.34C507.67 539.43 503.71 535.61 498.68 535.61" id="aiqWyWuKd"></path><path d="M491.33 623.63L506.01 623.63L506.01 565.77L491.33 565.77L491.33 623.63Z" id="beZnXCiT8"></path><path d="M558.63 576.55C566.63 576.55 572.22 582.82 572.22 591.79C572.22 593.91 572.22 604.53 572.22 623.63L586.79 623.63C586.79 601.96 586.79 589.92 586.79 587.51C586.79 573.15 578.22 563.86 564.93 563.86C557.92 563.86 551.9 566.33 547.49 570.98C547.17 571.31 545.59 572.97 542.74 575.96L542.74 565.77L528.03 565.77L528.03 623.63L542.74 623.63C542.74 607.64 542.74 598.75 542.74 596.97C542.74 578.52 553.85 576.55 558.63 576.55" id="bhyGcbjSG"></path><path d="M680.76 576.55C688.5 576.55 694.13 582.63 694.13 591.04C694.13 593.21 694.13 604.08 694.13 623.63L708.69 623.63C708.69 601.51 708.69 589.22 708.69 586.76C708.69 573.49 699.65 563.86 687.21 563.86C678.78 563.86 671.77 567.21 666.91 573.54C666.75 573.75 665.94 574.8 664.48 576.7C663.23 574.66 662.53 573.53 662.39 573.3C658.67 567.3 651.99 563.86 644.03 563.86C637.02 563.86 631.43 566.16 627.41 570.65C627.09 571.01 625.48 572.8 622.59 576.03L622.59 565.77L607.91 565.77L607.91 623.63L622.59 623.63C622.59 606.66 622.59 597.22 622.59 595.34C622.59 583.58 628.14 576.55 637.47 576.55C645.28 576.55 650.95 582.63 650.95 591.04C650.95 593.21 650.95 604.08 650.95 623.63L665.64 623.63C665.64 606.66 665.64 597.22 665.64 595.34C665.64 583.75 671.45 576.55 680.76 576.55" id="aE7Vi19a3"></path><path d="M739.67 590.26C740.29 588.15 740.63 586.97 740.7 586.74C742.79 579.58 749.24 574.78 756.72 574.78C764.29 574.78 770.03 579.25 772.11 586.78C772.18 587.01 772.5 588.17 773.08 590.26L739.67 590.26ZM786.67 594.69C786.33 576.57 774.01 563.88 756.72 563.88C739.13 563.88 725.89 577.13 725.89 594.69C725.89 612.28 739.09 625.53 756.59 625.53C765.71 625.53 777.55 622.82 784.07 610.45C782.8 610.2 772.69 608.13 771.43 607.87C768.16 612.58 763.28 614.88 756.59 614.88C748.46 614.88 742.21 609.36 740.27 600.46C740.22 600.23 739.98 599.12 739.54 597.12L786.67 597.12C786.67 595.83 786.67 595.02 786.67 594.69Z" id="bYld1HTNM"></path><path d="M835.13 576.55C843.13 576.55 848.74 582.82 848.74 591.79C848.74 593.91 848.74 604.53 848.74 623.63L863.3 623.63C863.3 601.96 863.3 589.92 863.3 587.51C863.3 573.15 854.72 563.86 841.43 563.86C834.42 563.86 828.4 566.33 824 570.98C823.68 571.31 822.1 572.97 819.24 575.96L819.24 565.77L804.54 565.77L804.54 623.63L819.24 623.63C819.24 607.64 819.24 598.75 819.24 596.97C819.24 578.52 830.36 576.55 835.13 576.55" id="anSpCTplN"></path><path d="M911.94 622.77C917.81 622.77 922.19 621.29 925.93 619.44C925.62 618.37 923.11 609.84 922.79 608.78C920.34 609.68 917.61 610.24 915.33 610.24C908.11 610.24 904.13 605.98 904.13 598.26C904.13 596.61 904.13 588.37 904.13 573.54L922.82 573.54L922.82 563.02L904.13 563.02L904.13 544.34L889.42 544.34L889.42 563.02L877.94 563.02L877.94 573.54L889.42 573.54C889.42 589.58 889.42 598.5 889.42 600.28C889.42 614.99 897.21 622.77 911.94 622.77" id="gJKtGmvW1"></path><path d="M599.27 356.09C588.62 366.3 575.81 371.51 561.17 371.51C546.63 371.51 533.88 366.3 523.24 356.09C512.46 345.73 507 333.19 507 318.87C507 309.43 509.54 300.57 514.55 292.57C519.52 284.66 526.27 278.25 534.59 273.55C551.53 264.26 571.7 264.51 587.91 273.55C596.23 278.25 602.99 284.66 607.97 292.57C612.96 300.59 615.5 309.43 615.5 318.87C615.5 333.19 610.04 345.73 599.27 356.09M672.71 423.39L672.71 216.52L615.5 216.65L615.5 229.53C613.15 228.43 611.85 227.83 611.59 227.7C608.32 226.18 605.57 225.02 602.94 224.05C575.87 214.01 545.99 214.03 519.41 224.22C506.04 229.1 494.17 236.24 484.08 245.44C473.87 254.67 465.72 265.63 459.87 278.08C454.05 290.6 451.1 304.34 451.1 318.87C451.1 338.16 456.2 355.85 466.26 371.51C476.21 386.92 489.85 399.31 506.81 408.27C523.77 417.13 542.05 421.63 561.17 421.63C575.66 421.63 589.7 419.05 602.92 413.93C604.77 413.31 607.59 412.17 611.67 410.38C611.93 410.27 613.2 409.72 615.5 408.73L615.5 423.93L672.71 423.39Z" id="b9io6CqWD"></path><path d="M318.18 437.65L318.18 214.78L262.47 214.78C262.47 285.18 262.47 324.29 262.47 332.12C262.47 351.17 246.97 366.67 227.92 366.67C208.85 366.67 193.32 351.17 193.32 332.12C193.32 324.4 193.32 285.84 193.32 216.44L137.61 216.44C137.61 285.84 137.61 324.4 137.61 332.12C137.61 381.89 178.12 422.4 227.92 422.4C238.32 422.4 248.71 420.53 258.79 416.83C259.04 416.74 260.26 416.29 262.47 415.48C262.47 428.78 262.47 436.17 262.47 437.65C262.47 455.79 248.45 470.71 230.67 472.11C230.67 477.69 230.67 522.31 230.67 527.89C279.18 526.43 318.18 486.52 318.18 437.65" id="b1hiBpuLLK"></path><path d="M438.33 272.77L445.72 272.77L445.72 217.06C441.29 217.06 438.82 217.06 438.33 217.06C388.55 217.06 348.04 257.57 348.04 307.35C348.04 315.17 348.04 354.28 348.04 424.68L403.75 424.68C403.75 354.28 403.75 315.17 403.75 307.35C403.75 288.27 419.26 272.77 438.33 272.77" id="b795z28H5"></path><path d="M116.22 424.68L123.59 424.68L123.59 368.97C119.17 368.97 116.71 368.97 116.22 368.97C97.15 368.97 81.62 353.44 81.62 334.39C81.62 322.5 81.62 263.04 81.62 156L25.93 156C25.93 263.04 25.93 322.5 25.93 334.39C25.93 384.17 66.42 424.68 116.22 424.68" id="a3NHXTm5zP"></path></defs><g><g><g><use xlink:href="#g1elDoUZlA" opacity="1" fill="#ffffff" fill-opacity="1"></use><g><use xlink:href="#g1elDoUZlA" opacity="1" fill-opacity="0" stroke="#000000" stroke-width="1" stroke-opacity="0"></use></g></g><g><use xlink:href="#g8dJZUyjT" opacity="1" fill="#ffffff" fill-opacity="1"></use><g><use xlink:href="#g8dJZUyjT" opacity="1" fill-opacity="0" stroke="#000000" stroke-width="1" stroke-opacity="0"></use></g></g><g><use xlink:href="#a3ho7clY8" opacity="1" fill="#ffffff" fill-opacity="1"></use><g><use xlink:href="#a3ho7clY8" opacity="1" fill-opacity="0" stroke="#000000" stroke-width="1" stroke-opacity="0"></use></g></g><g><use xlink:href="#aMJeLJfC6" opacity="1" fill="#ffffff" fill-opacity="1"></use><g><use xlink:href="#aMJeLJfC6" opacity="1" fill-opacity="0" stroke="#000000" stroke-width="1" stroke-opacity="0"></use></g></g><g><use xlink:href="#h30sK00wU" opacity="1" fill="#ffffff" fill-opacity="1"></use><g><use xlink:href="#h30sK00wU" opacity="1" fill-opacity="0" stroke="#000000" stroke-width="1" stroke-opacity="0"></use></g></g><g><use xlink:href="#a16tUftSqt" opacity="1" fill="#ffffff" fill-opacity="1"></use><g><use xlink:href="#a16tUftSqt" opacity="1" fill-opacity="0" stroke="#000000" stroke-width="1" stroke-opacity="0"></use></g></g><g><use xlink:href="#a2gAvuAhsu" opacity="1" fill="#ffffff" fill-opacity="1"></use><g><use xlink:href="#a2gAvuAhsu" opacity="1" fill-opacity="0" stroke="#000000" stroke-width="1" stroke-opacity="0"></use></g></g><g><use xlink:href="#aiqWyWuKd" opacity="1" fill="#ffffff" fill-opacity="1"></use><g><use xlink:href="#aiqWyWuKd" opacity="1" fill-opacity="0" stroke="#000000" stroke-width="1" stroke-opacity="0"></use></g></g><g><use xlink:href="#beZnXCiT8" opacity="1" fill="#ffffff" fill-opacity="1"></use><g><use xlink:href="#beZnXCiT8" opacity="1" fill-opacity="0" stroke="#000000" stroke-width="1" stroke-opacity="0"></use></g></g><g><use xlink:href="#bhyGcbjSG" opacity="1" fill="#ffffff" fill-opacity="1"></use><g><use xlink:href="#bhyGcbjSG" opacity="1" fill-opacity="0" stroke="#000000" stroke-width="1" stroke-opacity="0"></use></g></g><g><use xlink:href="#aE7Vi19a3" opacity="1" fill="#ffffff" fill-opacity="1"></use><g><use xlink:href="#aE7Vi19a3" opacity="1" fill-opacity="0" stroke="#000000" stroke-width="1" stroke-opacity="0"></use></g></g><g><use xlink:href="#bYld1HTNM" opacity="1" fill="#ffffff" fill-opacity="1"></use><g><use xlink:href="#bYld1HTNM" opacity="1" fill-opacity="0" stroke="#000000" stroke-width="1" stroke-opacity="0"></use></g></g><g><use xlink:href="#anSpCTplN" opacity="1" fill="#ffffff" fill-opacity="1"></use><g><use xlink:href="#anSpCTplN" opacity="1" fill-opacity="0" stroke="#000000" stroke-width="1" stroke-opacity="0"></use></g></g><g><use xlink:href="#gJKtGmvW1" opacity="1" fill="#ffffff" fill-opacity="1"></use><g><use xlink:href="#gJKtGmvW1" opacity="1" fill-opacity="0" stroke="#000000" stroke-width="1" stroke-opacity="0"></use></g></g><g><use xlink:href="#b9io6CqWD" opacity="1" fill="#ffffff" fill-opacity="1"></use><g><use xlink:href="#b9io6CqWD" opacity="1" fill-opacity="0" stroke="#000000" stroke-width="1" stroke-opacity="0"></use></g></g><g><use xlink:href="#b1hiBpuLLK" opacity="1" fill="#ffffff" fill-opacity="1"></use><g><use xlink:href="#b1hiBpuLLK" opacity="1" fill-opacity="0" stroke="#000000" stroke-width="1" stroke-opacity="0"></use></g></g><g><use xlink:href="#b795z28H5" opacity="1" fill="#ffffff" fill-opacity="1"></use><g><use xlink:href="#b795z28H5" opacity="1" fill-opacity="0" stroke="#000000" stroke-width="1" stroke-opacity="0"></use></g></g><g><use xlink:href="#a3NHXTm5zP" opacity="1" fill="#ffffff" fill-opacity="1"></use><g><use xlink:href="#a3NHXTm5zP" opacity="1" fill-opacity="0" stroke="#000000" stroke-width="1" stroke-opacity="0"></use></g></g></g></g></svg>