<?xml version="1.0" encoding="UTF-8" standalone="no"?>
<!DOCTYPE svg PUBLIC "-//W3C//DTD SVG 1.1//EN" "http://www.w3.org/Graphics/SVG/1.1/DTD/svg11.dtd">
<svg version="1.1" xmlns="http://www.w3.org/2000/svg" xmlns:xlink="http://www.w3.org/1999/xlink" preserveAspectRatio="xMidYMid meet" viewBox="0 0 640 640" width="850" height="850"><defs><path d="M342.54 474.43C343.12 472.43 343.45 471.32 343.51 471.1C345.5 464.35 351.57 459.81 358.66 459.81C365.79 459.81 371.23 464.05 373.2 471.14C373.26 471.36 373.57 472.45 374.11 474.43L342.54 474.43ZM386.93 478.63C386.62 461.51 374.99 449.51 358.66 449.51C342.05 449.51 329.54 462.04 329.54 478.63C329.54 495.22 342.01 507.75 358.54 507.75C367.15 507.75 378.34 505.19 384.47 493.52C383.28 493.27 373.74 491.32 372.55 491.08C369.44 495.51 364.85 497.68 358.54 497.68C350.84 497.68 344.93 492.46 343.11 484.07C343.06 483.86 342.84 482.81 342.44 480.93L386.93 480.93C386.93 479.7 386.93 478.94 386.93 478.63Z" id="aipNnyh7D"></path><path d="M432.7 461.49C440.27 461.49 445.55 467.4 445.55 475.89C445.55 477.89 445.55 487.91 445.55 505.94L459.32 505.94C459.32 485.47 459.32 474.1 459.32 471.83C459.32 458.28 451.22 449.51 438.67 449.51C432.05 449.51 426.34 451.83 422.18 456.21C421.88 456.53 420.38 458.1 417.69 460.92L417.69 451.3L403.82 451.3L403.82 505.94L417.69 505.94C417.69 490.84 417.69 482.44 417.69 480.76C417.69 463.36 428.19 461.49 432.7 461.49" id="d1mC6LbsKK"></path><path d="M504.38 507.75C509.93 507.75 514.07 506.33 517.6 504.6C517.3 503.59 514.93 495.52 514.64 494.51C512.3 495.36 509.74 495.89 507.59 495.89C500.77 495.89 497.01 491.87 497.01 484.58C497.01 483.03 497.01 475.25 497.01 461.25L514.66 461.25L514.66 451.3L497.01 451.3L497.01 433.65L483.12 433.65L483.12 451.3L472.28 451.3L472.28 461.25L483.12 461.25C483.12 476.39 483.12 484.81 483.12 486.49C483.12 500.4 490.47 507.75 504.38 507.75" id="agKLSY07r"></path><path d="M541.24 474.43C541.82 472.43 542.15 471.32 542.21 471.1C544.2 464.35 550.27 459.81 557.34 459.81C564.49 459.81 569.93 464.05 571.88 471.14C571.94 471.36 572.25 472.45 572.82 474.43L541.24 474.43ZM585.63 478.63C585.3 461.51 573.69 449.51 557.34 449.51C540.75 449.51 528.24 462.04 528.24 478.63C528.24 495.22 540.69 507.75 557.22 507.75C565.83 507.75 577.04 505.19 583.17 493.52C581.98 493.27 572.43 491.32 571.23 491.08C568.14 495.51 563.53 497.68 557.22 497.68C549.54 497.68 543.63 492.46 541.81 484.07C541.76 483.86 541.53 482.81 541.12 480.93L585.63 480.93C585.63 479.7 585.63 478.94 585.63 478.63Z" id="a1LHlQVJpX"></path><path d="M639.62 464.82L640.6 464.82C640.98 456.24 641.19 451.48 641.23 450.53C640.74 450.49 640.23 450.47 639.62 450.47C631.81 450.47 625.61 454.18 621.23 461.47C620.9 462.01 619.29 464.7 616.39 469.53L616.39 451.3L602.52 451.3L602.52 505.94L616.39 505.94C616.39 496.28 616.39 490.91 616.39 489.84C616.39 473.47 624.43 464.82 639.62 464.82" id="b182Hota4I"></path><path d="M358.88 599.44C364.47 599.44 368.59 598.03 372.12 596.29C371.83 595.28 369.46 587.22 369.16 586.22C366.82 587.07 364.26 587.6 362.11 587.6C355.29 587.6 351.53 583.58 351.53 576.29C351.53 574.73 351.53 566.95 351.53 552.93L369.16 552.93L369.16 543L351.53 543L351.53 525.36L337.64 525.36L337.64 543L326.8 543L326.8 552.93L337.64 552.93C337.64 568.09 337.64 576.51 337.64 578.19C337.64 592.08 344.99 599.44 358.88 599.44" id="a1N7Q1uOwn"></path><path d="M413.31 588.43C403.44 588.43 396.27 580.81 396.27 570.32C396.27 559.84 403.44 552.22 413.31 552.22C422.97 552.22 430.55 560.16 430.55 570.32C430.55 580.47 422.97 588.43 413.31 588.43M444.44 597.65L444.44 543L430.55 543L430.55 551C427.95 548.66 426.51 547.37 426.22 547.11C421.85 543.19 416.19 541.22 409.37 541.22C394.2 541.22 382.74 553.73 382.74 570.32C382.74 586.93 394.2 599.44 409.37 599.44C416.19 599.44 421.85 597.45 426.22 593.55C426.51 593.29 427.95 591.99 430.55 589.65L430.55 597.65L444.44 597.65Z" id="a3WDZbuNYb"></path><path d="M472.42 514.51C467.65 514.51 464.03 518.05 464.03 522.76C464.03 527.47 467.48 530.76 472.42 530.76C477.41 530.76 480.91 527.47 480.91 522.76C480.91 518.13 477.17 514.51 472.42 514.51" id="bG9m9vk9f"></path><path d="M465.47 597.65L479.34 597.65L479.34 543L465.47 543L465.47 597.65Z" id="a5tAoGyQGc"></path><path d="M529.03 553.18C536.59 553.18 541.87 559.11 541.87 567.57C541.87 569.58 541.87 579.6 541.87 597.65L555.64 597.65C555.64 577.18 555.64 565.81 555.64 563.53C555.64 549.97 547.53 541.2 534.98 541.2C528.36 541.2 522.68 543.53 518.51 547.92C518.22 548.23 516.72 549.8 514.03 552.63L514.03 543L500.14 543L500.14 597.65L514.03 597.65C514.03 582.54 514.03 574.15 514.03 572.47C514.03 555.05 524.53 553.18 529.03 553.18" id="fIB6X3LWO"></path><path d="M644.38 553.18C651.69 553.18 657.01 558.92 657.01 566.86C657.01 568.92 657.01 579.18 657.01 597.65L670.75 597.65C670.75 576.75 670.75 565.14 670.75 562.82C670.75 550.29 662.23 541.2 650.47 541.2C642.51 541.2 635.89 544.36 631.3 550.33C631.15 550.53 630.38 551.53 629 553.32C627.82 551.39 627.17 550.32 627.03 550.11C623.52 544.45 617.21 541.2 609.69 541.2C603.07 541.2 597.79 543.37 594 547.61C593.69 547.95 592.18 549.64 589.45 552.69L589.45 543L575.58 543L575.58 597.65L589.45 597.65C589.45 581.61 589.45 572.71 589.45 570.93C589.45 559.82 594.69 553.18 603.5 553.18C610.87 553.18 616.23 558.92 616.23 566.86C616.23 568.92 616.23 579.18 616.23 597.65L630.1 597.65C630.1 581.61 630.1 572.71 630.1 570.93C630.1 559.98 635.58 553.18 644.38 553.18" id="ecZWQP4X6"></path><path d="M700.02 566.13C700.6 564.13 700.93 563.02 700.99 562.8C702.96 556.04 709.05 551.51 716.12 551.51C723.27 551.51 728.69 555.74 730.66 562.84C730.72 563.06 731.03 564.16 731.57 566.13L700.02 566.13ZM744.41 570.32C744.08 553.2 732.45 541.22 716.12 541.22C699.51 541.22 687 553.73 687 570.32C687 586.93 699.47 599.44 716 599.44C724.61 599.44 735.8 596.88 741.95 585.2C740.76 584.96 731.2 583.01 730.01 582.76C726.92 587.21 722.31 589.38 716 589.38C708.32 589.38 702.41 584.17 700.59 575.76C700.54 575.55 700.31 574.5 699.89 572.61L744.41 572.61C744.41 571.39 744.41 570.62 744.41 570.32Z" id="i2CeP49ydf"></path><path d="M790.18 553.18C797.73 553.18 803.03 559.11 803.03 567.57C803.03 569.58 803.03 579.6 803.03 597.65L816.78 597.65C816.78 577.18 816.78 565.81 816.78 563.53C816.78 549.97 808.68 541.2 796.13 541.2C789.51 541.2 783.82 543.53 779.66 547.92C779.36 548.23 777.86 549.8 775.17 552.63L775.17 543L761.28 543L761.28 597.65L775.17 597.65C775.17 582.54 775.17 574.15 775.17 572.47C775.17 555.05 785.67 553.18 790.18 553.18" id="h3uuUNL3d1"></path><path d="M862.71 596.84C868.26 596.84 872.4 595.44 875.93 593.69C875.64 592.68 873.27 584.62 872.97 583.62C870.65 584.47 868.08 585 865.92 585C859.1 585 855.34 580.98 855.34 573.69C855.34 572.13 855.34 564.35 855.34 550.33L872.99 550.33L872.99 540.4L855.34 540.4L855.34 522.76L841.45 522.76L841.45 540.4L830.61 540.4L830.61 550.33L841.45 550.33C841.45 565.49 841.45 573.91 841.45 575.6C841.45 589.49 848.8 596.84 862.71 596.84" id="cGdQ0QJRL"></path><path d="M567.41 344.97C557.36 354.62 545.26 359.53 531.43 359.53C517.7 359.53 505.66 354.62 495.61 344.97C485.44 335.18 480.28 323.34 480.28 309.82C480.28 300.91 482.67 292.54 487.4 284.98C492.1 277.51 498.47 271.46 506.33 267.01C522.33 258.24 541.38 258.48 556.69 267.01C564.55 271.46 570.93 277.51 575.64 284.98C580.35 292.56 582.75 300.91 582.75 309.82C582.75 323.34 577.59 335.18 567.41 344.97M636.78 408.53L636.78 213.16L582.75 213.28L582.75 225.45C580.53 224.41 579.3 223.83 579.05 223.72C575.96 222.28 573.36 221.18 570.89 220.27C545.32 210.78 517.09 210.8 491.99 220.43C479.36 225.04 468.15 231.78 458.63 240.47C448.98 249.18 441.29 259.54 435.76 271.3C430.26 283.12 427.48 296.09 427.48 309.82C427.48 328.04 432.29 344.75 441.8 359.53C451.2 374.09 464.07 385.79 480.09 394.26C496.12 402.62 513.38 406.87 531.43 406.87C545.12 406.87 558.38 404.43 570.87 399.6C572.61 399.01 575.27 397.93 579.13 396.25C579.37 396.14 580.58 395.62 582.75 394.68L582.75 409.04L636.78 408.53Z" id="a31nUJSQ9g"></path><path d="M301.94 421.99L301.94 211.51L249.33 211.51C249.33 278 249.33 314.94 249.33 322.33C249.33 340.32 234.69 354.96 216.7 354.96C198.68 354.96 184.02 340.32 184.02 322.33C184.02 315.05 184.02 278.63 184.02 213.08L131.41 213.08C131.41 278.63 131.41 315.05 131.41 322.33C131.41 369.34 169.67 407.6 216.7 407.6C226.52 407.6 236.33 405.83 245.86 402.34C246.09 402.25 247.25 401.83 249.33 401.06C249.33 413.62 249.33 420.6 249.33 421.99C249.33 439.13 236.09 453.23 219.29 454.55C219.29 459.81 219.29 501.96 219.29 507.22C265.11 505.84 301.94 468.15 301.94 421.99" id="acbUdAPxN"></path><path d="M415.42 266.28L422.4 266.28L422.4 213.67C418.21 213.67 415.88 213.67 415.42 213.67C368.41 213.67 330.15 251.93 330.15 298.94C330.15 306.32 330.15 343.26 330.15 409.75L382.76 409.75C382.76 343.26 382.76 306.32 382.76 298.94C382.76 280.92 397.41 266.28 415.42 266.28" id="iITpOHgPf"></path><path d="M111.2 409.75L118.17 409.75L118.17 357.13C113.99 357.13 111.67 357.13 111.2 357.13C93.19 357.13 78.53 342.47 78.53 324.48C78.53 313.25 78.53 257.09 78.53 156L25.93 156C25.93 257.09 25.93 313.25 25.93 324.48C25.93 371.49 64.17 409.75 111.2 409.75" id="h3pFXda7Ho"></path></defs><g><g><g><use xlink:href="#aipNnyh7D" opacity="1" fill="#000000" fill-opacity="1"></use><g><use xlink:href="#aipNnyh7D" opacity="1" fill-opacity="0" stroke="#000000" stroke-width="1" stroke-opacity="0"></use></g></g><g><use xlink:href="#d1mC6LbsKK" opacity="1" fill="#000000" fill-opacity="1"></use><g><use xlink:href="#d1mC6LbsKK" opacity="1" fill-opacity="0" stroke="#000000" stroke-width="1" stroke-opacity="0"></use></g></g><g><use xlink:href="#agKLSY07r" opacity="1" fill="#000000" fill-opacity="1"></use><g><use xlink:href="#agKLSY07r" opacity="1" fill-opacity="0" stroke="#000000" stroke-width="1" stroke-opacity="0"></use></g></g><g><use xlink:href="#a1LHlQVJpX" opacity="1" fill="#000000" fill-opacity="1"></use><g><use xlink:href="#a1LHlQVJpX" opacity="1" fill-opacity="0" stroke="#000000" stroke-width="1" stroke-opacity="0"></use></g></g><g><use xlink:href="#b182Hota4I" opacity="1" fill="#000000" fill-opacity="1"></use><g><use xlink:href="#b182Hota4I" opacity="1" fill-opacity="0" stroke="#000000" stroke-width="1" stroke-opacity="0"></use></g></g><g><use xlink:href="#a1N7Q1uOwn" opacity="1" fill="#000000" fill-opacity="1"></use><g><use xlink:href="#a1N7Q1uOwn" opacity="1" fill-opacity="0" stroke="#000000" stroke-width="1" stroke-opacity="0"></use></g></g><g><use xlink:href="#a3WDZbuNYb" opacity="1" fill="#000000" fill-opacity="1"></use><g><use xlink:href="#a3WDZbuNYb" opacity="1" fill-opacity="0" stroke="#000000" stroke-width="1" stroke-opacity="0"></use></g></g><g><use xlink:href="#bG9m9vk9f" opacity="1" fill="#000000" fill-opacity="1"></use><g><use xlink:href="#bG9m9vk9f" opacity="1" fill-opacity="0" stroke="#000000" stroke-width="1" stroke-opacity="0"></use></g></g><g><use xlink:href="#a5tAoGyQGc" opacity="1" fill="#000000" fill-opacity="1"></use><g><use xlink:href="#a5tAoGyQGc" opacity="1" fill-opacity="0" stroke="#000000" stroke-width="1" stroke-opacity="0"></use></g></g><g><use xlink:href="#fIB6X3LWO" opacity="1" fill="#000000" fill-opacity="1"></use><g><use xlink:href="#fIB6X3LWO" opacity="1" fill-opacity="0" stroke="#000000" stroke-width="1" stroke-opacity="0"></use></g></g><g><use xlink:href="#ecZWQP4X6" opacity="1" fill="#000000" fill-opacity="1"></use><g><use xlink:href="#ecZWQP4X6" opacity="1" fill-opacity="0" stroke="#000000" stroke-width="1" stroke-opacity="0"></use></g></g><g><use xlink:href="#i2CeP49ydf" opacity="1" fill="#000000" fill-opacity="1"></use><g><use xlink:href="#i2CeP49ydf" opacity="1" fill-opacity="0" stroke="#000000" stroke-width="1" stroke-opacity="0"></use></g></g><g><use xlink:href="#h3uuUNL3d1" opacity="1" fill="#000000" fill-opacity="1"></use><g><use xlink:href="#h3uuUNL3d1" opacity="1" fill-opacity="0" stroke="#000000" stroke-width="1" stroke-opacity="0"></use></g></g><g><use xlink:href="#cGdQ0QJRL" opacity="1" fill="#000000" fill-opacity="1"></use><g><use xlink:href="#cGdQ0QJRL" opacity="1" fill-opacity="0" stroke="#000000" stroke-width="1" stroke-opacity="0"></use></g></g><g><use xlink:href="#a31nUJSQ9g" opacity="1" fill="#000000" fill-opacity="1"></use><g><use xlink:href="#a31nUJSQ9g" opacity="1" fill-opacity="0" stroke="#000000" stroke-width="1" stroke-opacity="0"></use></g></g><g><use xlink:href="#acbUdAPxN" opacity="1" fill="#000000" fill-opacity="1"></use><g><use xlink:href="#acbUdAPxN" opacity="1" fill-opacity="0" stroke="#000000" stroke-width="1" stroke-opacity="0"></use></g></g><g><use xlink:href="#iITpOHgPf" opacity="1" fill="#000000" fill-opacity="1"></use><g><use xlink:href="#iITpOHgPf" opacity="1" fill-opacity="0" stroke="#000000" stroke-width="1" stroke-opacity="0"></use></g></g><g><use xlink:href="#h3pFXda7Ho" opacity="1" fill="#000000" fill-opacity="1"></use><g><use xlink:href="#h3pFXda7Ho" opacity="1" fill-opacity="0" stroke="#000000" stroke-width="1" stroke-opacity="0"></use></g></g></g></g></svg>