<?xml version="1.0" encoding="UTF-8"?>
<svg width="27px" height="22px" viewBox="0 0 27 22" version="1.1" xmlns="http://www.w3.org/2000/svg" xmlns:xlink="http://www.w3.org/1999/xlink">
    <!-- Generator: Sketch 47.1 (45422) - http://www.bohemiancoding.com/sketch -->
    <title>Shape</title>
    <desc>Created with Sketch.</desc>
    <defs></defs>
    <g id="Page-1" stroke="none" stroke-width="1" fill="none" fill-rule="evenodd">
        <g id="good_times_landing" transform="translate(-1185.000000, -7072.000000)" fill-rule="nonzero" fill="#FFFFFF">
            <g id="Group-5" transform="translate(0.000000, 6984.000000)">
                <g id="Group-8">
                    <path d="M1206.36658,91.9542782 L1205.94223,91.9778016 L1205.62566,91.6985844 C1204.84909,91.0136492 1203.862,90.642602 1202.81307,90.642602 C1200.48607,90.642602 1198.59196,92.5070558 1198.59196,94.7975243 C1198.59196,94.8893468 1198.59493,94.9876727 1198.60078,95.0988866 L1198.66007,96.2246812 L1197.51712,96.1576477 C1195.49045,96.0387842 1193.44664,95.2107274 1191.4457,93.7729308 C1190.77568,93.2914888 1190.141,92.7621326 1189.55724,92.2040945 C1189.38554,92.0399601 1189.22225,91.876995 1189.08537,91.734522 C1188.48256,92.9496339 1188.52694,94.2093863 1189.17749,95.448733 L1189.78824,96.6122562 L1188.69847,96.8504103 C1188.72337,98.1587345 1189.20068,99.1597026 1190.09377,99.9042291 L1190.88379,100.562828 L1190.30488,101.221543 C1190.73539,102.468836 1191.54322,103.271426 1192.6968,103.688948 L1194.76426,104.437241 L1192.85065,105.511342 C1191.72236,106.144645 1190.3556,106.446289 1188.81788,106.446289 C1188.6964,106.446289 1188.57164,106.443971 1188.44818,106.439789 C1190.11684,107.402383 1192.14279,107.875935 1194.44369,107.875935 C1195.46842,107.875935 1196.41174,107.784742 1197.01687,107.655994 C1201.22375,106.688813 1204.10129,104.502027 1205.74022,101.21255 C1206.68267,99.3209745 1207.13966,97.2630662 1207.13582,95.3331207 L1207.13494,94.8907234 L1207.46498,94.5905119 C1208.24971,93.8766975 1208.80543,93.3002765 1209.12956,92.9085992 L1207.49602,93.3385323 L1208.59221,91.337641 C1207.89029,91.7071678 1207.13712,91.9115639 1206.36658,91.9542782 Z M1202.81307,88.6259354 C1204.20683,88.6259354 1205.53691,89.0722154 1206.62815,89.8986364 C1207.11606,89.8158442 1207.58649,89.6238775 1208.02297,89.3163188 C1208.54746,88.9439407 1209.23479,88.8818463 1209.81848,89.1516939 C1210.40145,89.4202652 1210.79155,89.978196 1210.83997,90.6129139 C1210.85174,90.7730728 1210.84571,90.9371118 1210.82248,91.1041098 C1211.38428,91.5397144 1211.63017,92.2679974 1211.43546,92.9545776 C1211.24149,93.6354138 1210.51373,94.5285443 1209.178,95.7743286 C1209.11655,97.8729656 1208.59189,100.068066 1207.57915,102.100711 C1205.66454,105.943492 1202.27752,108.517463 1197.46629,109.623449 C1196.69628,109.787453 1195.60861,109.892602 1194.44369,109.892602 C1191.31267,109.892602 1188.55088,109.11237 1186.35519,107.487051 C1185.69614,106.999516 1185.46343,106.13087 1185.79242,105.384694 C1186.12237,104.640144 1186.9283,104.217019 1187.77325,104.364913 C1187.90369,104.391708 1188.3932,104.429623 1188.81788,104.429623 C1189.21591,104.429623 1189.59392,104.405013 1189.95028,104.356008 C1189.20566,103.66558 1188.64583,102.769606 1188.30282,101.680299 C1188.22665,101.438073 1188.20592,101.186887 1188.23706,100.943126 C1187.17181,99.8159211 1186.62149,98.3489955 1186.65025,96.6115193 C1186.65636,96.2354976 1186.78452,95.8793186 1187.00479,95.5891319 C1186.35828,93.86789 1186.50125,92.0633668 1187.4918,90.3961768 C1187.78322,89.9063396 1188.29698,89.5856942 1188.87209,89.5348853 C1189.45054,89.4842444 1190.01637,89.7136799 1190.38873,90.1488779 C1190.49027,90.2670159 1190.72401,90.508627 1190.98405,90.7571998 C1191.5002,91.2506057 1192.06181,91.7190193 1192.65319,92.1439564 C1193.99122,93.1054125 1195.3151,93.7320832 1196.59538,94.0026716 C1196.99248,90.9727062 1199.62849,88.6259354 1202.81307,88.6259354 Z" id="Shape"></path>
                </g>
            </g>
        </g>
    </g>
</svg>